<svg width="24" height="25" viewBox="0 0 24 25" fill="none" xmlns="http://www.w3.org/2000/svg">
<g clip-path="url(#clip0_1023_26460)">
<rect width="24" height="24" transform="translate(0 0.84137)" fill="white" fill-opacity="0.01"/>
<path fill-rule="evenodd" clip-rule="evenodd" d="M9 16.0114V9.67137C9.66749 9.43546 10.2301 8.97117 10.5884 8.36056C10.9466 7.74995 11.0775 7.03235 10.9578 6.33458C10.8381 5.63682 10.4756 5.00383 9.93437 4.5475C9.39311 4.09117 8.70795 3.84088 8 3.84088C7.29205 3.84088 6.60689 4.09117 6.06563 4.5475C5.52437 5.00383 5.16186 5.63682 5.04219 6.33458C4.92251 7.03235 5.05337 7.74995 5.41164 8.36056C5.76991 8.97117 6.33251 9.43546 7 9.67137V16.0114C6.52211 16.1804 6.09484 16.4678 5.75803 16.8466C5.42122 17.2254 5.18586 17.6834 5.0739 18.1778C4.96195 18.6722 4.97704 19.1868 5.11779 19.6738C5.25853 20.1608 5.52033 20.6042 5.87877 20.9626C6.2372 21.321 6.68059 21.5828 7.16756 21.7236C7.65453 21.8643 8.16922 21.8794 8.6636 21.7675C9.15799 21.6555 9.61596 21.4201 9.99479 21.0833C10.3736 20.7465 10.661 20.3193 10.83 19.8414H15C15.7956 19.8414 16.5587 19.5253 17.1213 18.9627C17.6839 18.4001 18 17.637 18 16.8414V14.5334C18.6675 14.2975 19.2301 13.8332 19.5884 13.2226C19.9466 12.612 20.0775 11.8943 19.9578 11.1966C19.8381 10.4988 19.4756 9.86583 18.9344 9.4095C18.3931 8.95317 17.708 8.70288 17 8.70288C16.292 8.70288 15.6069 8.95317 15.0656 9.4095C14.5244 9.86583 14.1619 10.4988 14.0422 11.1966C13.9225 11.8943 14.0534 12.612 14.4116 13.2226C14.7699 13.8332 15.3325 14.2975 16 14.5334V16.8414C16 17.1066 15.8946 17.3609 15.7071 17.5485C15.5196 17.736 15.2652 17.8414 15 17.8414H10.83C10.6804 17.4194 10.4385 17.0361 10.1219 16.7195C9.80528 16.4029 9.422 16.161 9 16.0114ZM3 0.84137H21C21.7956 0.84137 22.5587 1.15744 23.1213 1.72005C23.6839 2.28266 24 3.04572 24 3.84137V21.8414C24 22.637 23.6839 23.4001 23.1213 23.9627C22.5587 24.5253 21.7956 24.8414 21 24.8414H3C2.20435 24.8414 1.44129 24.5253 0.87868 23.9627C0.31607 23.4001 0 22.637 0 21.8414L0 3.84137C0 3.04572 0.31607 2.28266 0.87868 1.72005C1.44129 1.15744 2.20435 0.84137 3 0.84137V0.84137ZM8 7.84137C7.73478 7.84137 7.48043 7.73601 7.29289 7.54848C7.10536 7.36094 7 7.10659 7 6.84137C7 6.57615 7.10536 6.3218 7.29289 6.13426C7.48043 5.94673 7.73478 5.84137 8 5.84137C8.26522 5.84137 8.51957 5.94673 8.70711 6.13426C8.89464 6.3218 9 6.57615 9 6.84137C9 7.10659 8.89464 7.36094 8.70711 7.54848C8.51957 7.73601 8.26522 7.84137 8 7.84137ZM17 12.7034C16.7348 12.7034 16.4804 12.598 16.2929 12.4105C16.1054 12.2229 16 11.9686 16 11.7034C16 11.4382 16.1054 11.1838 16.2929 10.9963C16.4804 10.8087 16.7348 10.7034 17 10.7034C17.2652 10.7034 17.5196 10.8087 17.7071 10.9963C17.8946 11.1838 18 11.4382 18 11.7034C18 11.9686 17.8946 12.2229 17.7071 12.4105C17.5196 12.598 17.2652 12.7034 17 12.7034ZM8 19.8414C7.73478 19.8414 7.48043 19.736 7.29289 19.5485C7.10536 19.3609 7 19.1066 7 18.8414C7 18.5762 7.10536 18.3218 7.29289 18.1343C7.48043 17.9467 7.73478 17.8414 8 17.8414C8.26522 17.8414 8.51957 17.9467 8.70711 18.1343C8.89464 18.3218 9 18.5762 9 18.8414C9 19.1066 8.89464 19.3609 8.70711 19.5485C8.51957 19.736 8.26522 19.8414 8 19.8414Z" fill="#2684FF"/>
</g>
<defs>
<clipPath id="clip0_1023_26460">
<rect width="24" height="24" fill="white" transform="translate(0 0.84137)"/>
</clipPath>
</defs>
</svg>
