<svg width="240" height="112" viewBox="0 0 240 112" fill="none" xmlns="http://www.w3.org/2000/svg">
<path d="M68.3206 88.8145L59.3123 77.5334V88.8145H52.604V53.4416H59.3123V73.5659L68.2247 62.3326H76.9455L65.2539 75.6214L77.0414 88.8145H68.3206Z" fill="#0A090D"/>
<path d="M89.6905 66.4435C90.553 65.0414 91.6711 63.9419 93.0447 63.1453C94.4502 62.3486 96.0474 61.9502 97.8363 61.9502V68.977H96.0634C93.9551 68.977 92.3579 69.4709 91.2718 70.4588C90.2176 71.4467 89.6905 73.1676 89.6905 75.6214V88.8145H82.9822V62.3326H89.6905V66.4435Z" fill="#0A090D"/>
<path d="M108.153 59.1778C106.971 59.1778 105.98 58.8113 105.182 58.0783C104.415 57.3135 104.032 56.3734 104.032 55.2581C104.032 54.1427 104.415 53.2186 105.182 52.4856C105.98 51.7208 106.971 51.3384 108.153 51.3384C109.335 51.3384 110.309 51.7208 111.075 52.4856C111.874 53.2186 112.273 54.1427 112.273 55.2581C112.273 56.3734 111.874 57.3135 111.075 58.0783C110.309 58.8113 109.335 59.1778 108.153 59.1778ZM111.459 62.3326V88.8145H104.751V62.3326H111.459Z" fill="#0A090D"/>
<path d="M145.878 62.3326L129.443 101.338H122.303L128.053 88.1453L117.416 62.3326H124.939L131.791 80.8317L138.739 62.3326H145.878Z" fill="#0A090D"/>
<path d="M150.165 75.478C150.165 72.8011 150.692 70.427 151.746 68.3556C152.832 66.2842 154.286 64.6908 156.107 63.5755C157.96 62.4601 160.02 61.9024 162.288 61.9024C164.269 61.9024 165.994 62.3008 167.463 63.0975C168.964 63.8941 170.162 64.898 171.057 66.1089V62.3326H177.813V88.8145H171.057V84.9426C170.194 86.1854 168.996 87.2211 167.463 88.0497C165.962 88.8463 164.221 89.2447 162.24 89.2447C160.004 89.2447 157.96 88.6711 156.107 87.5238C154.286 86.3766 152.832 84.7673 151.746 82.6959C150.692 80.5927 150.165 78.1867 150.165 75.478ZM171.057 75.5736C171.057 73.9483 170.737 72.5621 170.098 71.4149C169.459 70.2358 168.597 69.3435 167.511 68.738C166.425 68.1006 165.259 67.782 164.013 67.782C162.767 67.782 161.617 68.0847 160.563 68.6902C159.509 69.2957 158.646 70.188 157.976 71.3671C157.337 72.5143 157.017 73.8846 157.017 75.478C157.017 77.0713 157.337 78.4735 157.976 79.6845C158.646 80.8636 159.509 81.7718 160.563 82.4091C161.649 83.0465 162.799 83.3651 164.013 83.3651C165.259 83.3651 166.425 83.0624 167.511 82.4569C168.597 81.8196 169.459 80.9273 170.098 79.7801C170.737 78.601 171.057 77.1988 171.057 75.5736Z" fill="#0A090D"/>
<path d="M219.727 61.9502C222.985 61.9502 225.605 62.9541 227.585 64.9617C229.598 66.9375 230.604 69.7099 230.604 73.2791V88.8145H223.896V74.1873C223.896 72.1159 223.369 70.5385 222.314 69.455C221.26 68.3397 219.823 67.782 218.002 67.782C216.181 67.782 214.728 68.3397 213.642 69.455C212.587 70.5385 212.06 72.1159 212.06 74.1873V88.8145H205.352V74.1873C205.352 72.1159 204.825 70.5385 203.771 69.455C202.717 68.3397 201.279 67.782 199.458 67.782C197.606 67.782 196.136 68.3397 195.05 69.455C193.996 70.5385 193.469 72.1159 193.469 74.1873V88.8145H186.761V62.3326H193.469V65.5353C194.331 64.42 195.433 63.5436 196.775 62.9063C198.149 62.2689 199.65 61.9502 201.279 61.9502C203.356 61.9502 205.208 62.3964 206.837 63.2887C208.467 64.1491 209.728 65.3919 210.623 67.0172C211.485 65.4875 212.731 64.2606 214.36 63.3365C216.021 62.4123 217.81 61.9502 219.727 61.9502Z" fill="#0A090D"/>
<path d="M29.2422 38.7693C34.4221 48.1609 44.2352 52.8836 49.3344 55.5451C46.8071 52.9281 43.6215 41.485 43.6216 31.8778C43.6217 20.1882 45.0047 11.2324 35.8734 12.8553C26.7416 14.4781 24.2362 29.693 29.2422 38.7693Z" fill="#5E21D8"/>
<path d="M28.7528 73.4525C37.2609 72.5286 43.7611 66.7729 47.2915 63.8457C44.5866 64.8987 35.1835 63.73 28.1133 60.7856C19.5107 57.203 13.3462 53.4431 11.7259 60.6431C10.1056 67.8434 20.5303 74.3454 28.7528 73.4525Z" fill="#8F68DC"/>
<path d="M80.3954 54.6515C73.872 57.703 66.6824 56.4021 62.8645 55.8385C65.2701 55.4146 71.5233 50.4669 75.3228 45.2609C79.9458 38.9265 82.7378 33.5296 87.048 38.0008C91.3584 42.4723 86.6997 51.7024 80.3954 54.6515Z" fill="#3C148B"/>
</svg>
