<?xml version="1.0" encoding="utf-8"?>
<svg version="1.1" xmlns:xlink="http://www.w3.org/1999/xlink" width="23px" height="27px" xmlns="http://www.w3.org/2000/svg">
  <g transform="matrix(1 0 0 1 -400 -329 )">
    <path d="M 17.3098958333333 1.02455357142857  L 21.9817708333333 5.72544642857143  C 22.2612847222222 6.00669642857143  22.5008680555556 6.38839285714286  22.7005208333333 6.87053571428571  C 22.9001736111111 7.35267857142857  23 7.79464285714286  23 8.19642857142857  L 23 25.5535714285714  C 23 25.9553571428571  22.8602430555556 26.296875  22.5807291666667 26.578125  C 22.3012152777778 26.859375  21.9618055555556 27  21.5625 27  L 1.4375 27  C 1.03819444444444 27  0.698784722222222 26.859375  0.419270833333333 26.578125  C 0.139756944444444 26.296875  0 25.9553571428571  0 25.5535714285714  L 0 1.44642857142857  C 0 1.04464285714286  0.139756944444444 0.703124999999999  0.419270833333333 0.421875  C 0.698784722222222 0.140625000000001  1.03819444444444 0  1.4375 0  L 14.8541666666667 0  C 15.2534722222222 0  15.6927083333333 0.10044642857143  16.171875 0.301339285714286  C 16.6510416666667 0.502232142857143  17.0303819444444 0.74330357142857  17.3098958333333 1.02455357142857  Z M 15.947265625 2.38058035714286  C 15.8274739583333 2.26004464285714  15.6228298611111 2.14955357142857  15.3333333333333 2.04910714285714  L 15.3333333333333 7.71428571428571  L 20.9635416666667 7.71428571428571  C 20.8637152777778 7.42299107142857  20.75390625 7.21707589285714  20.6341145833333 7.09654017857143  L 15.947265625 2.38058035714286  Z M 2 25  L 21 25  L 21 9.64285714285714  L 14.8541666666667 9.64285714285714  C 14.4548611111111 9.64285714285714  14.1154513888889 9.50223214285714  13.8359375 9.22098214285714  C 13.5564236111111 8.93973214285714  13.4166666666667 8.59821428571428  13.4166666666667 8.19642857142857  L 13.4166666666667 2  L 2 2  L 2 25  Z M 7.98111979166667 11.5714285714286  L 3.48893229166667 11.5714285714286  L 3.48893229166667 13.18359375  L 4.537109375 13.18359375  L 6.99283854166667 23.1428571428571  L 9.37369791666667 23.1428571428571  L 11.2903645833333 15.8353794642857  C 11.3602430555556 15.6344866071429  11.41015625 15.4034598214286  11.4401041666667 15.1422991071429  C 11.4600694444444 14.9815848214286  11.4700520833333 14.8610491071429  11.4700520833333 14.7806919642857  L 11.5299479166667 14.7806919642857  L 11.5748697916667 15.1422991071429  C 11.5848524305556 15.1724330357143  11.6023220486111 15.2728794642857  11.6272786458333 15.4436383928571  C 11.6522352430556 15.6143973214286  11.6796875 15.7449776785714  11.7096354166667 15.8353794642857  L 13.6263020833333 23.1428571428571  L 16.0071614583333 23.1428571428571  L 18.462890625 13.18359375  L 19.5110677083333 13.18359375  L 19.5110677083333 11.5714285714286  L 15.0188802083333 11.5714285714286  L 15.0188802083333 13.18359375  L 16.3665364583333 13.18359375  L 14.8841145833333 19.7829241071429  C 14.8342013888889 19.9838169642857  14.7992621527778 20.21484375  14.779296875 20.4760044642857  L 14.7493489583333 20.7924107142857  L 14.689453125 20.7924107142857  C 14.689453125 20.7622767857143  14.6869574652778 20.7296316964286  14.6819661458333 20.6944754464286  C 14.6769748263889 20.6593191964286  14.6694878472222 20.619140625  14.6595052083333 20.5739397321429  C 14.6495225694444 20.5287388392857  14.64453125 20.49609375  14.64453125 20.4760044642857  C 14.6345486111111 20.42578125  14.6145833333333 20.3203125  14.5846354166667 20.1595982142857  C 14.5546875 19.9988839285714  14.5297309027778 19.8733258928571  14.509765625 19.7829241071429  L 12.353515625 11.5714285714286  L 10.646484375 11.5714285714286  L 8.490234375 19.7829241071429  C 8.47026909722222 19.8733258928571  8.44780815972222 19.9963727678571  8.4228515625 20.1520647321429  C 8.39789496527778 20.3077566964286  8.38042534722222 20.4157366071429  8.37044270833333 20.4760044642857  L 8.310546875 20.7924107142857  L 8.25065104166667 20.7924107142857  L 8.220703125 20.4760044642857  C 8.20073784722222 20.21484375  8.16579861111111 19.9838169642857  8.11588541666667 19.7829241071429  L 6.63346354166667 13.18359375  L 7.98111979166667 13.18359375  L 7.98111979166667 11.5714285714286  Z " fill-rule="nonzero" fill="#000000" stroke="none" transform="matrix(1 0 0 1 400 329 )" />
  </g>
</svg>