<svg width="120" height="80" viewBox="0 0 120 80" fill="none" xmlns="http://www.w3.org/2000/svg">
<g clip-path="url(#clip0)">
<path d="M57.168 72.0001H10.704C10.6112 72.0015 10.519 71.9843 10.4329 71.9494C10.3469 71.9146 10.2687 71.8628 10.203 71.7971C10.1374 71.7314 10.0855 71.6533 10.0507 71.5672C10.0158 71.4811 9.99858 71.3889 10 71.2961V8.70408C9.99858 8.61124 10.0158 8.51904 10.0507 8.43298C10.0855 8.34692 10.1374 8.26873 10.203 8.20307C10.2687 8.13741 10.3469 8.08561 10.4329 8.05074C10.519 8.01587 10.6112 7.99864 10.704 8.00008H57.168C57.2609 7.99864 57.3531 8.01587 57.4391 8.05074C57.5252 8.08561 57.6034 8.13741 57.669 8.20307C57.7347 8.26873 57.7865 8.34692 57.8214 8.43298C57.8562 8.51904 57.8735 8.61124 57.872 8.70408V71.2961C57.8735 71.3889 57.8562 71.4811 57.8214 71.5672C57.7865 71.6533 57.7347 71.7314 57.669 71.7971C57.6034 71.8628 57.5252 71.9146 57.4391 71.9494C57.3531 71.9843 57.2609 72.0015 57.168 72.0001V72.0001ZM110 71.2961V8.70408C110.001 8.61214 109.985 8.52083 109.95 8.43548C109.916 8.35013 109.865 8.27243 109.801 8.20691C109.736 8.1414 109.659 8.08937 109.575 8.05386C109.49 8.01835 109.399 8.00007 109.307 8.00008H62.832C62.6453 8.00008 62.4662 8.07425 62.3342 8.20628C62.2022 8.33831 62.128 8.51737 62.128 8.70408V71.2961C62.128 71.4828 62.2022 71.6619 62.3342 71.7939C62.4662 71.9259 62.6453 72.0001 62.832 72.0001H109.307C109.399 72.0001 109.49 71.9818 109.575 71.9463C109.659 71.9108 109.736 71.8588 109.801 71.7933C109.865 71.7277 109.916 71.65 109.95 71.5647C109.985 71.4793 110.001 71.388 110 71.2961V71.2961Z" fill="#CFD4DB"/>
<path d="M110 71.296V8.704C110 8.31519 109.685 8 109.296 8L62.832 8C62.4432 8 62.128 8.31519 62.128 8.704L62.128 71.296C62.128 71.6848 62.4432 72 62.832 72H109.296C109.685 72 110 71.6848 110 71.296Z" fill="#0065FF"/>
<path d="M107.056 10.9551H65.0614C64.6726 10.9551 64.3574 11.2703 64.3574 11.6591V28.1924C64.3574 28.5812 64.6726 28.8964 65.0614 28.8964H107.056C107.445 28.8964 107.76 28.5812 107.76 28.1924V11.6591C107.76 11.2703 107.445 10.9551 107.056 10.9551Z" fill="white"/>
<path d="M102.053 27.5203C103.927 27.5203 105.445 26.0017 105.445 24.1283C105.445 22.255 103.927 20.7363 102.053 20.7363C100.18 20.7363 98.6613 22.255 98.6613 24.1283C98.6613 26.0017 100.18 27.5203 102.053 27.5203Z" fill="#66A3FF"/>
<path d="M66.6187 13.7275H92.4533" stroke="#66A3FF" stroke-width="0.76"/>
<path d="M66.6187 16.8213H92.4533" stroke="#66A3FF" stroke-width="0.76"/>
<path d="M66.6187 24.6934H81.9146" stroke="#66A3FF" stroke-width="0.76"/>
<path d="M107.056 31.0293H65.0614C64.6726 31.0293 64.3574 31.3445 64.3574 31.7333V48.2666C64.3574 48.6554 64.6726 48.9706 65.0614 48.9706H107.056C107.445 48.9706 107.76 48.6554 107.76 48.2666V31.7333C107.76 31.3445 107.445 31.0293 107.056 31.0293Z" fill="white"/>
<path d="M102.053 47.5945C103.927 47.5945 105.445 46.0759 105.445 44.2025C105.445 42.3292 103.927 40.8105 102.053 40.8105C100.18 40.8105 98.6613 42.3292 98.6613 44.2025C98.6613 46.0759 100.18 47.5945 102.053 47.5945Z" fill="#66A3FF"/>
<path d="M66.6187 33.792H92.4533" stroke="#66A3FF" stroke-width="0.76"/>
<path d="M66.6187 36.8857H92.4533" stroke="#66A3FF" stroke-width="0.76"/>
<path d="M107.355 51.6377H64.816V69.227H107.355V51.6377Z" fill="#3384FF"/>
<path d="M54.9387 10.9551H12.944C12.5552 10.9551 12.24 11.2703 12.24 11.6591V28.1924C12.24 28.5812 12.5552 28.8964 12.944 28.8964H54.9387C55.3275 28.8964 55.6427 28.5812 55.6427 28.1924V11.6591C55.6427 11.2703 55.3275 10.9551 54.9387 10.9551Z" fill="white"/>
<path d="M49.936 27.5203C51.8094 27.5203 53.328 26.0017 53.328 24.1283C53.328 22.255 51.8094 20.7363 49.936 20.7363C48.0627 20.7363 46.544 22.255 46.544 24.1283C46.544 26.0017 48.0627 27.5203 49.936 27.5203Z" fill="#CFD4DB"/>
<path d="M14.5013 13.7275H40.336" stroke="#CFD4DB" stroke-width="0.76"/>
<path d="M14.5013 16.8213H40.336" stroke="#CFD4DB" stroke-width="0.76"/>
<path d="M55.216 31.2109H12.6773V48.8003H55.216V31.2109Z" fill="#FAFBFC"/>
<path d="M66.6187 44.7676H81.9146" stroke="#97A0AF" stroke-width="1.38"/>
<g style="mix-blend-mode:multiply">
<g style="mix-blend-mode:multiply">
<path d="M64.1333 53.333C65.6373 58.1117 65.3386 61.2477 70.4373 63.9997C75.536 66.7517 80.6986 66.3143 84.112 65.813C89.5888 64.9425 94.699 62.5133 98.832 58.8157" stroke="#A5ADBA" stroke-width="0.76" stroke-miterlimit="10" stroke-dasharray="3.8 3.8"/>
</g>
<g style="mix-blend-mode:multiply">
<path d="M98.896 63.0179L98.096 62.9219L98.576 58.9539L94.5867 58.7726L94.6187 57.9619L99.4827 58.1859L98.896 63.0179Z" fill="#A5ADBA"/>
</g>
</g>
<g style="mix-blend-mode:multiply">
<g style="mix-blend-mode:multiply">
<path d="M26.2347 40.0957C29.4445 36.7776 33.7014 34.6693 38.2861 34.127C42.8707 33.5848 47.502 34.6419 51.3973 37.1197C53.7212 38.719 55.6822 40.7898 57.1525 43.1974C58.6227 45.605 59.5694 48.2953 59.9307 51.0931" stroke="#A5ADBA" stroke-width="0.76" stroke-miterlimit="10" stroke-dasharray="3.8 3.8"/>
</g>
<g style="mix-blend-mode:multiply">
<path d="M56.1227 49.0133L56.6133 48.3626L59.792 50.7946L61.9787 47.4453L62.6613 47.8933L59.9947 51.968L56.1227 49.0133Z" fill="#A5ADBA"/>
</g>
</g>
<g style="mix-blend-mode:multiply" opacity="0.63">
<path d="M57.872 45.1523H34.1493C33.9645 45.1551 33.7882 45.2305 33.6584 45.3623C33.5287 45.494 33.456 45.6715 33.456 45.8563V62.4003C33.4546 62.4923 33.4715 62.5836 33.5057 62.6689C33.5399 62.7543 33.5908 62.832 33.6553 62.8975C33.7198 62.963 33.7967 63.0151 33.8815 63.0506C33.9664 63.0861 34.0574 63.1044 34.1493 63.1043H57.872V45.1523Z" fill="#DFE1E5"/>
</g>
<g style="mix-blend-mode:multiply" opacity="0.63">
<path d="M76.848 62.4003V45.8563C76.8452 45.6705 76.7702 45.493 76.6388 45.3616C76.5073 45.2302 76.3298 45.1551 76.144 45.1523H62.128V63.083H76.1333C76.3175 63.0832 76.4945 63.0123 76.6277 62.8851C76.7608 62.7579 76.8397 62.5843 76.848 62.4003V62.4003Z" fill="#DFE1E5"/>
</g>
<path d="M81.296 40.4375H39.216C38.8272 40.4375 38.512 40.7527 38.512 41.1415V57.7175C38.512 58.1063 38.8272 58.4215 39.216 58.4215H81.296C81.6848 58.4215 82 58.1063 82 57.7175V41.1415C82 40.7527 81.6848 40.4375 81.296 40.4375Z" fill="#57D9A3"/>
<path d="M75.9946 55.4771C77.7266 55.4771 79.1306 54.073 79.1306 52.3411C79.1306 50.6091 77.7266 49.2051 75.9946 49.2051C74.2627 49.2051 72.8586 50.6091 72.8586 52.3411C72.8586 54.073 74.2627 55.4771 75.9946 55.4771Z" fill="white"/>
<path d="M42.096 44.1924H70.8" stroke="#00875A" stroke-width="1.04" stroke-miterlimit="10"/>
<path d="M42.096 47.9355H70.8" stroke="#00875A" stroke-width="1.04" stroke-miterlimit="10"/>
<path d="M42.096 53.8457H52.336" stroke="#00875A" stroke-width="1.04" stroke-miterlimit="10"/>
</g>
<defs>
<clipPath id="clip0">
<rect width="100" height="64" fill="white" transform="translate(10 8)"/>
</clipPath>
</defs>
</svg>
