<svg width="115" height="48" viewBox="0 0 115 48" fill="none" xmlns="http://www.w3.org/2000/svg">
<path d="M30.1652 41.2012L25.456 35.304V41.2012H21.9492V22.7098H25.456V33.2299L30.1151 27.3577H34.6739L28.562 34.3044L34.724 41.2012H30.1652Z" fill="white"/>
<path d="M41.3364 29.5067C41.7873 28.7737 42.3718 28.1989 43.0898 27.7825C43.8246 27.366 44.6595 27.1578 45.5947 27.1578V30.831H44.6679C43.5658 30.831 42.7308 31.0893 42.163 31.6057C41.612 32.1221 41.3364 33.0217 41.3364 34.3044V41.2012H37.8296V27.3577H41.3364V29.5067Z" fill="white"/>
<path d="M50.9876 25.7084C50.3697 25.7084 49.852 25.5169 49.4346 25.1337C49.0338 24.7339 48.8334 24.2425 48.8334 23.6594C48.8334 23.0763 49.0338 22.5932 49.4346 22.2101C49.852 21.8103 50.3697 21.6104 50.9876 21.6104C51.6054 21.6104 52.1148 21.8103 52.5155 22.2101C52.933 22.5932 53.1417 23.0763 53.1417 23.6594C53.1417 24.2425 52.933 24.7339 52.5155 25.1337C52.1148 25.5169 51.6054 25.7084 50.9876 25.7084ZM52.7159 27.3577V41.2012H49.2091V27.3577H52.7159Z" fill="white"/>
<path d="M70.7088 27.3577L62.1172 47.7482H58.3849L61.3908 40.8514L55.83 27.3577H59.7626L63.3445 37.0282L66.9766 27.3577H70.7088Z" fill="white"/>
<path d="M72.9499 34.2295C72.9499 32.8301 73.2254 31.589 73.7765 30.5062C74.3443 29.4234 75.1041 28.5904 76.0559 28.0074C77.0245 27.4243 78.1016 27.1328 79.2872 27.1328C80.3225 27.1328 81.2243 27.341 81.9924 27.7575C82.7773 28.174 83.4035 28.6987 83.8711 29.3317V27.3577H87.4029V41.2012H83.8711V39.1772C83.4202 39.8269 82.794 40.3683 81.9924 40.8014C81.2076 41.2179 80.2975 41.4261 79.2621 41.4261C78.0932 41.4261 77.0245 41.1262 76.0559 40.5265C75.1041 39.9268 74.3443 39.0855 73.7765 38.0027C73.2254 36.9032 72.9499 35.6455 72.9499 34.2295ZM83.8711 34.2794C83.8711 33.4298 83.7041 32.7052 83.3701 32.1055C83.0361 31.4891 82.5852 31.0226 82.0175 30.7061C81.4497 30.3729 80.8402 30.2063 80.1889 30.2063C79.5377 30.2063 78.9365 30.3646 78.3854 30.6811C77.8344 30.9976 77.3835 31.4641 77.0328 32.0805C76.6988 32.6802 76.5318 33.3965 76.5318 34.2295C76.5318 35.0624 76.6988 35.7954 77.0328 36.4284C77.3835 37.0448 77.8344 37.5196 78.3854 37.8528C78.9532 38.1859 79.5544 38.3525 80.1889 38.3525C80.8402 38.3525 81.4497 38.1943 82.0175 37.8778C82.5852 37.5446 83.0361 37.0781 83.3701 36.4784C83.7041 35.862 83.8711 35.129 83.8711 34.2794Z" fill="white"/>
<path d="M109.314 27.1578C111.017 27.1578 112.386 27.6825 113.422 28.732C114.474 29.7649 115 31.2142 115 33.08V41.2012H111.493V33.5548C111.493 32.472 111.217 31.6473 110.666 31.0809C110.115 30.4979 109.364 30.2063 108.412 30.2063C107.46 30.2063 106.7 30.4979 106.133 31.0809C105.582 31.6473 105.306 32.472 105.306 33.5548V41.2012H101.799V33.5548C101.799 32.472 101.524 31.6473 100.973 31.0809C100.422 30.4979 99.6701 30.2063 98.7182 30.2063C97.7497 30.2063 96.9815 30.4979 96.4138 31.0809C95.8627 31.6473 95.5872 32.472 95.5872 33.5548V41.2012H92.0804V27.3577H95.5872V29.0319C96.038 28.4488 96.6142 27.9907 97.3155 27.6575C98.0336 27.3244 98.8184 27.1578 99.6701 27.1578C100.756 27.1578 101.724 27.391 102.576 27.8574C103.427 28.3072 104.087 28.9569 104.555 29.8065C105.005 29.0069 105.657 28.3655 106.508 27.8824C107.377 27.3993 108.312 27.1578 109.314 27.1578Z" fill="white"/>
<path d="M9.73659 15.0393C12.4444 19.9488 17.5743 22.4177 20.2399 23.809C18.9187 22.4409 17.2535 16.459 17.2535 11.4367C17.2536 5.32596 17.9766 0.644268 13.2031 1.4926C8.4294 2.34098 7.11967 10.2946 9.73659 15.0393Z" fill="#DFDAE7"/>
<path d="M9.481 33.1702C13.9287 32.6872 17.3267 29.6784 19.1722 28.1482C17.7582 28.6987 12.8427 28.0878 9.1467 26.5485C4.64964 24.6757 1.4271 22.7102 0.580109 26.4741C-0.266927 30.2381 5.18267 33.637 9.481 33.1702Z" fill="white"/>
<path d="M36.4778 23.3415C33.0676 24.9367 29.3093 24.2567 27.3134 23.9621C28.5709 23.7404 31.8398 21.154 33.8261 18.4325C36.2428 15.1212 37.7023 12.2999 39.9555 14.6373C42.2088 16.9748 39.7734 21.7999 36.4778 23.3415Z" fill="#ACA4B7"/>
</svg>
