<?xml version="1.0" encoding="utf-8"?>
<svg version="1.1" xmlns:xlink="http://www.w3.org/1999/xlink" width="23px" height="27px" xmlns="http://www.w3.org/2000/svg">
  <g transform="matrix(1 0 0 1 -400 -79 )">
    <path d="M 17.3098958333333 1.02455357142857  L 21.9817708333333 5.72544642857143  C 22.2612847222222 6.00669642857143  22.5008680555556 6.38839285714286  22.7005208333333 6.87053571428571  C 22.9001736111111 7.35267857142857  23 7.79464285714286  23 8.19642857142857  L 23 25.5535714285714  C 23 25.9553571428571  22.8602430555556 26.296875  22.5807291666667 26.578125  C 22.3012152777778 26.859375  21.9618055555556 27  21.5625 27  L 1.4375 27  C 1.03819444444444 27  0.698784722222222 26.859375  0.419270833333333 26.578125  C 0.139756944444444 26.296875  0 25.9553571428571  0 25.5535714285714  L 0 1.44642857142857  C 0 1.04464285714286  0.139756944444444 0.703124999999999  0.419270833333333 0.421875  C 0.698784722222222 0.140625000000001  1.03819444444444 0  1.4375 0  L 14.8541666666667 0  C 15.2534722222222 0  15.6927083333333 0.10044642857143  16.171875 0.301339285714286  C 16.6510416666667 0.502232142857143  17.0303819444444 0.74330357142857  17.3098958333333 1.02455357142857  Z M 15.947265625 2.38058035714286  C 15.8274739583333 2.26004464285714  15.6228298611111 2.14955357142857  15.3333333333333 2.04910714285714  L 15.3333333333333 7.71428571428571  L 20.9635416666667 7.71428571428571  C 20.8637152777778 7.42299107142857  20.75390625 7.21707589285714  20.6341145833333 7.09654017857143  L 15.947265625 2.38058035714286  Z M 2 25  L 21 25  L 21 9.64285714285714  L 14.8541666666667 9.64285714285714  C 14.4548611111111 9.64285714285714  14.1154513888889 9.50223214285714  13.8359375 9.22098214285714  C 13.5564236111111 8.93973214285714  13.4166666666667 8.59821428571428  13.4166666666667 8.19642857142857  L 13.4166666666667 2  L 2 2  L 2 25  Z M 11.2005208333333 12.55078125  C 11.7495659722222 14.1981026785714  12.4782986111111 15.3934151785714  13.38671875 16.13671875  C 13.7161458333333 16.3978794642857  14.1354166666667 16.6791294642857  14.64453125 16.98046875  C 15.2335069444444 16.91015625  15.8174913194444 16.875  16.396484375 16.875  C 17.8639322916667 16.875  18.7473958333333 17.12109375  19.046875 17.61328125  C 19.2065972222222 17.8342633928571  19.2165798611111 18.0954241071429  19.0768229166667 18.3967633928571  C 19.0768229166667 18.4068080357143  19.0718315972222 18.4168526785714  19.0618489583333 18.4268973214286  L 19.0319010416667 18.45703125  L 19.0319010416667 18.4720982142857  C 18.9720052083333 18.8537946428571  18.6176215277778 19.0446428571429  17.96875 19.0446428571429  C 17.4895833333333 19.0446428571429  16.9155815972222 18.9441964285714  16.2467447916667 18.7433035714286  C 15.5779079861111 18.5424107142857  14.9290364583333 18.2762276785714  14.3001302083333 17.9447544642857  C 12.0939670138889 18.1858258928571  10.1373697916667 18.6026785714286  8.43033854166667 19.1953125  C 6.90299479166667 21.8270089285714  5.69509548611111 23.1428571428571  4.806640625 23.1428571428571  C 4.65690104166667 23.1428571428571  4.51714409722222 23.1077008928571  4.38736979166667 23.0373883928571  L 4.02799479166667 22.8565848214286  C 4.01801215277778 22.8465401785714  3.98806423611111 22.8214285714286  3.93815104166667 22.78125  C 3.83832465277778 22.6808035714286  3.80837673611111 22.5  3.84830729166667 22.2388392857143  C 3.93815104166667 21.8370535714286  4.21766493055556 21.3775111607143  4.68684895833333 20.8602120535714  C 5.15603298611111 20.3429129464286  5.81488715277778 19.8582589285714  6.66341145833333 19.40625  C 6.80316840277778 19.3158482142857  6.91796875 19.3459821428571  7.0078125 19.4966517857143  C 7.02777777777778 19.5167410714286  7.03776041666667 19.5368303571429  7.03776041666667 19.5569196428571  C 7.55685763888889 18.703125  8.09092881944444 17.7137276785714  8.63997395833333 16.5887276785714  C 9.31879340277778 15.22265625  9.837890625 13.9068080357143  10.197265625 12.6411830357143  C 9.95768229166667 11.8175223214286  9.80544704861111 11.0164620535714  9.74055989583333 10.2380022321429  C 9.67567274305556 9.45954241071428  9.70811631944444 8.81919642857143  9.837890625 8.31696428571429  C 9.94769965277778 7.91517857142857  10.1573350694444 7.71428571428571  10.466796875 7.71428571428571  L 10.78125 7.71428571428571  L 10.7962239583333 7.71428571428571  C 11.0258246527778 7.71428571428571  11.2005208333333 7.78962053571429  11.3203125 7.94029017857143  C 11.5 8.15122767857143  11.544921875 8.49274553571428  11.455078125 8.96484375  C 11.4351128472222 9.02511160714286  11.4151475694444 9.06529017857143  11.3951822916667 9.08537946428571  C 11.4051649305556 9.11551339285714  11.41015625 9.15569196428571  11.41015625 9.20591517857143  L 11.41015625 9.65792410714286  C 11.3901909722222 10.8934151785714  11.3203125 11.8577008928571  11.2005208333333 12.55078125  Z M 5.5029296875 21.2142857142857  C 5.13856336805556 21.65625  4.89149305555556 22.0279017857143  4.76171875 22.3292410714286  C 5.28081597222222 22.0881696428571  5.96462673611111 21.2946428571429  6.81315104166667 19.9486607142857  C 6.30403645833333 20.3504464285714  5.86729600694444 20.7723214285714  5.5029296875 21.2142857142857  Z M 10.7213541666667 8.4375  L 10.7213541666667 8.46763392857143  C 10.5716145833333 8.88950892857143  10.5616319444444 9.55245535714286  10.69140625 10.4564732142857  C 10.7013888888889 10.3861607142857  10.736328125 10.1651785714286  10.7962239583333 9.79352678571429  C 10.7962239583333 9.76339285714286  10.8311631944444 9.54743303571428  10.9010416666667 9.14564732142857  C 10.9110243055556 9.10546875  10.9309895833333 9.06529017857143  10.9609375 9.02511160714286  C 10.9509548611111 9.01506696428571  10.9459635416667 9.00502232142857  10.9459635416667 8.99497767857143  C 10.9359809027778 8.97488839285714  10.9309895833333 8.95982142857143  10.9309895833333 8.94977678571429  C 10.9210069444444 8.72879464285714  10.8561197916667 8.54799107142857  10.736328125 8.40736607142857  C 10.736328125 8.41741071428571  10.7313368055556 8.42745535714286  10.7213541666667 8.4375  Z M 9.53841145833333 17.1763392857143  C 9.23893229166667 17.7388392857143  9.01432291666667 18.1556919642857  8.86458333333333 18.4268973214286  C 10.2122395833333 17.8844866071429  11.6297743055556 17.4776785714286  13.1171875 17.2064732142857  C 13.0972222222222 17.1964285714286  13.0323350694444 17.1487165178571  12.9225260416667 17.0633370535714  C 12.8127170138889 16.9779575892857  12.7328559027778 16.91015625  12.6829427083333 16.8599330357143  C 11.9242621527778 16.1869419642857  11.2903645833333 15.3030133928571  10.78125 14.2081473214286  C 10.51171875 15.0719866071429  10.0974392361111 16.0613839285714  9.53841145833333 17.1763392857143  Z M 18.5677083333333 18.2310267857143  C 18.5677083333333 18.2209821428571  18.5577256944444 18.2059151785714  18.5377604166667 18.1858258928571  C 18.2981770833333 17.9447544642857  17.5993923611111 17.82421875  16.44140625 17.82421875  C 17.2000868055556 18.10546875  17.8190104166667 18.24609375  18.2981770833333 18.24609375  C 18.4379340277778 18.24609375  18.5277777777778 18.2410714285714  18.5677083333333 18.2310267857143  Z " fill-rule="nonzero" fill="#000000" stroke="none" transform="matrix(1 0 0 1 400 79 )" />
  </g>
</svg>