<?xml version="1.0" encoding="UTF-8" standalone="no"?>
<!DOCTYPE svg PUBLIC "-//W3C//DTD SVG 1.1//EN" "http://www.w3.org/Graphics/SVG/1.1/DTD/svg11.dtd">
<svg width="100%" height="100%" viewBox="0 0 451 400" version="1.1" xmlns="http://www.w3.org/2000/svg" xmlnsXlink="http://www.w3.org/1999/xlink" xmlSpace="preserve" xmlnsSerif="http://www.serif.com/" style="fill-rule:evenodd;clip-rule:evenodd;stroke-linejoin:round;stroke-miterlimit:2;">
    <g transform="matrix(1,0,0,1,-240.468,-191.276)">
        <path d="M447.626,563.928C352.408,563.928 274.943,486.463 274.943,391.246C274.943,296.028 352.408,218.563 447.626,218.563C503.718,218.621 556.418,245.946 588.787,291.756L587.153,292.911C555.159,247.63 503.069,220.62 447.626,220.563C353.512,220.563 276.943,297.131 276.943,391.246C276.943,485.36 353.512,561.928 447.626,561.928C500.735,562.101 550.955,537.316 583.122,495.056L584.708,496.273C552.165,539.028 501.357,564.104 447.626,563.928Z" style="fill:rgb(207,212,218);fill-rule:nonzero;"/>
    </g>
    <g transform="matrix(1,0,0,1,-240.468,-191.276)">
        <path d="M519.016,362.328C513.764,362.328 509.444,358.007 509.444,352.756C509.444,347.505 513.764,343.184 519.016,343.184C524.267,343.184 528.588,347.505 528.588,352.756C528.588,358.007 524.267,362.328 519.016,362.328Z" style="fill:rgb(207,212,218);fill-rule:nonzero;"/>
    </g>
    <g transform="matrix(1,0,0,1,-240.468,-191.276)">
        <path d="M522.354,354.759L520.351,352.756L522.354,350.753C522.532,350.576 522.633,350.335 522.633,350.083C522.633,349.565 522.206,349.139 521.688,349.139C521.437,349.139 521.196,349.239 521.018,349.418L519.015,351.421L517.012,349.418C516.835,349.241 516.595,349.141 516.345,349.141C515.827,349.141 515.401,349.567 515.401,350.085C515.401,350.336 515.5,350.576 515.677,350.753L517.68,352.756L515.677,354.759C515.501,354.936 515.403,355.175 515.403,355.424C515.403,355.942 515.829,356.369 516.347,356.369C516.596,356.369 516.836,356.27 517.012,356.094L519.015,354.091L521.018,356.094C521.195,356.271 521.436,356.371 521.686,356.371C522.204,356.371 522.63,355.945 522.63,355.427C522.63,355.176 522.531,354.936 522.354,354.759Z" style="fill:white;fill-rule:nonzero;"/>
    </g>
    <g transform="matrix(1,0,0,1,34.4753,19.9179)">
        <circle cx="196.468" cy="19.049" r="19.049" style="fill:rgb(207,212,218);"/>
    </g>
    <g transform="matrix(1,0,0,1,-240.468,-191.276)">
        <path d="M468.813,240.157C468.146,240.157 467.517,239.842 467.118,239.309L461.921,232.38C461.646,232.013 461.497,231.567 461.497,231.109C461.497,229.946 462.454,228.99 463.616,228.99C464.282,228.99 464.911,229.304 465.311,229.837L468.711,234.37L477.443,221.272C477.837,220.69 478.496,220.34 479.198,220.34C480.361,220.34 481.317,221.297 481.317,222.459C481.317,222.873 481.196,223.277 480.969,223.623L470.576,239.213C470.195,239.785 469.558,240.137 468.871,240.156L468.813,240.157Z" style="fill:white;fill-rule:nonzero;"/>
    </g>
    <g transform="matrix(1,0,0,1,34.4753,19.9179)">
        <path d="M224.862,58.484C224.862,55.686 222.59,53.414 219.792,53.414L173.985,53.414C171.187,53.414 168.915,55.686 168.915,58.484L168.915,60.308C168.915,63.106 171.187,65.378 173.985,65.378L219.792,65.378C222.59,65.378 224.862,63.106 224.862,60.308L224.862,58.484Z" style="fill:rgb(207,212,218);"/>
    </g>
    <g transform="matrix(1,0,0,1,34.4753,19.9179)">
        <path d="M253.275,82.411C253.275,79.613 251.003,77.341 248.205,77.341L145.572,77.341C142.774,77.341 140.502,79.613 140.502,82.411L140.502,84.235C140.502,87.033 142.774,89.305 145.572,89.305L248.205,89.305C251.003,89.305 253.275,87.033 253.275,84.235L253.275,82.411Z" style="fill:rgb(207,212,218);"/>
    </g>
    <g transform="matrix(1,0,0,1,34.4753,19.9179)">
        <path d="M253.275,106.338C253.275,103.54 251.003,101.268 248.205,101.268L145.572,101.268C142.774,101.268 140.502,103.54 140.502,106.338L140.502,108.162C140.502,110.96 142.774,113.232 145.572,113.232L248.205,113.232C251.003,113.232 253.275,110.96 253.275,108.162L253.275,106.338Z" style="fill:rgb(207,212,218);"/>
    </g>
    <g transform="matrix(1,0,0,1,-240.468,-191.276)">
        <path d="M460.722,567.575C455.471,567.575 451.15,563.254 451.15,558.003C451.15,552.752 455.471,548.431 460.722,548.431C465.973,548.431 470.294,552.752 470.294,558.003C470.294,563.254 465.973,567.575 460.722,567.575Z" style="fill:rgb(207,212,218);fill-rule:nonzero;"/>
    </g>
    <g transform="matrix(1,0,0,1,-240.468,-191.276)">
        <path d="M464.06,560.006L462.057,558.003L464.06,556C464.237,555.823 464.337,555.583 464.337,555.333C464.337,554.815 463.911,554.389 463.393,554.389C463.142,554.389 462.902,554.488 462.725,554.665L460.722,556.668L458.719,554.665C458.542,554.488 458.302,554.389 458.051,554.389C457.533,554.389 457.107,554.815 457.107,555.333C457.107,555.583 457.207,555.823 457.384,556L459.387,558.003L457.384,560.006C457.207,560.183 457.107,560.424 457.107,560.674C457.107,561.192 457.533,561.618 458.051,561.618C458.302,561.618 458.542,561.519 458.719,561.342L460.722,559.339L462.725,561.342C462.902,561.519 463.142,561.618 463.393,561.618C463.911,561.618 464.337,561.192 464.337,560.674C464.337,560.424 464.237,560.183 464.06,560.006Z" style="fill:white;fill-rule:nonzero;"/>
    </g>
    <g transform="matrix(1,0,0,1,34.4753,19.9179)">
        <circle cx="138.175" cy="224.296" r="19.049" style="fill:rgb(207,212,218);"/>
    </g>
    <g transform="matrix(1,0,0,1,-240.468,-191.276)">
        <path d="M410.519,445.404C409.853,445.404 409.224,445.09 408.824,444.557L403.627,437.627C403.352,437.261 403.204,436.814 403.204,436.356C403.204,435.194 404.16,434.237 405.322,434.237C405.989,434.237 406.618,434.552 407.018,435.085L410.418,439.618L419.15,426.519C419.541,425.924 420.208,425.564 420.921,425.564C422.083,425.564 423.04,426.521 423.04,427.683C423.04,428.106 422.913,428.52 422.676,428.87L412.282,444.461C411.901,445.032 411.265,445.384 410.578,445.404L410.519,445.404Z" style="fill:white;fill-rule:nonzero;"/>
    </g>
    <g transform="matrix(1,0,0,1,34.4753,19.9179)">
        <path d="M166.568,263.731C166.568,260.934 164.297,258.662 161.499,258.662L115.691,258.662C112.893,258.662 110.622,260.934 110.622,263.731L110.622,265.556C110.622,268.354 112.893,270.625 115.691,270.625L161.499,270.625C164.297,270.625 166.568,268.354 166.568,265.556L166.568,263.731Z" style="fill:rgb(207,212,218);"/>
    </g>
    <g transform="matrix(1,0,0,1,34.4753,19.9179)">
        <path d="M194.982,287.658C194.982,284.86 192.71,282.589 189.912,282.589L87.278,282.589C84.48,282.589 82.209,284.86 82.209,287.658L82.209,289.483C82.209,292.281 84.48,294.552 87.278,294.552L189.912,294.552C192.71,294.552 194.982,292.281 194.982,289.483L194.982,287.658Z" style="fill:rgb(207,212,218);"/>
    </g>
    <g transform="matrix(1,0,0,1,34.4753,19.9179)">
        <path d="M194.982,311.585C194.982,308.787 192.71,306.516 189.912,306.516L87.278,306.516C84.48,306.516 82.209,308.787 82.209,311.585L82.209,313.41C82.209,316.208 84.48,318.479 87.278,318.479L189.912,318.479C192.71,318.479 194.982,316.208 194.982,313.41L194.982,311.585Z" style="fill:rgb(207,212,218);"/>
    </g>
    <g transform="matrix(1,0,0,1,-240.468,-191.276)">
        <path d="M658.733,526.736C651.481,526.736 645.515,520.769 645.515,513.517C645.515,506.266 651.481,500.299 658.733,500.299C665.984,500.299 671.951,506.266 671.951,513.517C671.951,520.769 665.984,526.736 658.733,526.736Z" style="fill:rgb(207,212,218);fill-rule:nonzero;"/>
    </g>
    <g transform="matrix(1,0,0,1,-240.468,-191.276)">
        <path d="M663.343,516.283L660.577,513.518L663.343,510.752C663.587,510.507 663.724,510.175 663.724,509.83C663.724,509.114 663.136,508.526 662.421,508.526C662.075,508.526 661.743,508.663 661.499,508.908L658.733,511.674L655.967,508.908C655.722,508.663 655.39,508.526 655.045,508.526C654.329,508.526 653.741,509.114 653.741,509.83C653.741,510.175 653.878,510.507 654.123,510.752L656.889,513.518L654.123,516.284C653.878,516.528 653.741,516.86 653.741,517.206C653.741,517.921 654.329,518.509 655.045,518.509C655.39,518.509 655.722,518.372 655.967,518.128L658.733,515.362L661.498,518.127C661.743,518.372 662.075,518.509 662.42,518.509C663.136,518.509 663.724,517.921 663.724,517.205C663.724,516.86 663.587,516.528 663.342,516.283L663.343,516.283Z" style="fill:white;fill-rule:nonzero;"/>
    </g>
    <g transform="matrix(1,0,0,1,34.4753,19.9179)">
        <circle cx="326.199" cy="133.144" r="26.305" style="fill:rgb(0,203,255);"/>
    </g>
    <g transform="matrix(1,0,0,1,-240.468,-191.276)">
        <path d="M597.554,358.029C596.634,358.029 595.765,357.594 595.213,356.858L588.037,347.29C587.657,346.783 587.452,346.167 587.452,345.534C587.452,343.929 588.773,342.608 590.378,342.608C591.298,342.608 592.167,343.042 592.719,343.779L597.414,350.038L609.472,331.951C610.014,331.137 610.93,330.647 611.907,330.647C613.513,330.647 614.833,331.968 614.833,333.573C614.833,334.151 614.662,334.716 614.342,335.197L599.989,356.726C599.463,357.515 598.584,358.001 597.636,358.028C597.608,358.028 597.581,358.029 597.554,358.029Z" style="fill:white;fill-rule:nonzero;"/>
    </g>
    <g transform="matrix(1,0,0,1,34.4753,19.9179)">
        <path d="M365.408,185.67C365.408,182.872 363.137,180.6 360.339,180.6L293.221,180.6C290.423,180.6 288.152,182.872 288.152,185.67L288.152,192.051C288.152,194.849 290.423,197.121 293.221,197.121L360.339,197.121C363.137,197.121 365.408,194.849 365.408,192.051L365.408,185.67Z" style="fill:rgb(63,61,86);"/>
    </g>
    <g transform="matrix(1,0,0,1,34.4753,19.9179)">
        <path d="M404.644,218.711C404.644,215.913 402.373,213.641 399.575,213.641L253.985,213.641C251.187,213.641 248.916,215.913 248.916,218.711L248.916,225.092C248.916,227.89 251.187,230.162 253.985,230.162L399.575,230.162C402.373,230.162 404.644,227.89 404.644,225.092L404.644,218.711Z" style="fill:rgb(63,61,86);"/>
    </g>
    <g transform="matrix(1,0,0,1,34.4753,19.9179)">
        <path d="M404.644,251.751C404.644,248.954 402.373,246.682 399.575,246.682L253.985,246.682C251.187,246.682 248.916,248.954 248.916,251.751L248.916,258.133C248.916,260.931 251.187,263.202 253.985,263.202L399.575,263.202C402.373,263.202 404.644,260.931 404.644,258.133L404.644,251.751Z" style="fill:rgb(63,61,86);"/>
    </g>
</svg>
