<svg width="120" height="80" viewBox="0 0 120 80" fill="none" xmlns="http://www.w3.org/2000/svg">
<g clip-path="url(#clip0)">
<path d="M20 11H111V79H20V11Z" fill="white" fill-opacity="0.01"/>
<path d="M110.574 63.0424L96.6716 49.3518C96.4876 49.1519 96.2452 49.0132 95.9777 48.9548C95.7103 48.8963 95.4311 48.9211 95.1785 49.0255C94.926 49.13 94.7126 49.309 94.5677 49.538C94.4229 49.7669 94.3537 50.0345 94.3698 50.3038V56.5258H59.3716V71.4518H94.4159V77.6851C94.4088 77.9507 94.4836 78.2123 94.6305 78.4352C94.7774 78.6581 94.9894 78.832 95.2387 78.9338C95.4879 79.0357 95.7627 79.0608 96.0267 79.0058C96.2907 78.9508 96.5316 78.8183 96.7176 78.6258L110.574 64.9351C110.702 64.8117 110.803 64.6644 110.873 64.5019C110.942 64.3394 110.978 64.165 110.978 63.9888C110.978 63.8126 110.942 63.6381 110.873 63.4756C110.803 63.3131 110.702 63.1659 110.574 63.0424Z" fill="#64E6A4"/>
<path d="M68.9814 56.5264C66.4857 58.1277 63.5703 58.9784 60.5915 58.9744V71.441H72.6642C79.5664 68.5175 85.1481 63.2143 88.3622 56.5264H68.9814Z" fill="url(#paint0_linear)"/>
<path d="M59.3716 71.4522V56.5262C62.45 56.5284 65.4599 55.6314 68.0205 53.9486C70.5811 52.2658 72.5772 49.8728 73.7563 47.0725C74.9355 44.2722 75.2446 41.1904 74.6446 38.217C74.0445 35.2437 72.5624 32.5124 70.3856 30.3688C68.2088 28.2252 65.4352 26.7656 62.4159 26.1747C59.3965 25.5839 56.2669 25.8883 53.4233 27.0494C50.5796 28.2106 48.1496 30.1763 46.4407 32.6978C44.7319 35.2193 43.8209 38.1834 43.8232 41.2149H28.6891C28.6891 35.2335 30.4906 29.3866 33.8656 24.4136C37.2405 19.4406 42.0374 15.565 47.6495 13.2771C53.2615 10.9891 59.4365 10.3917 65.3934 11.5602C71.3503 12.7288 76.8215 15.6108 81.1148 19.8419C85.4081 24.0729 88.3307 29.4628 89.5129 35.3298C90.695 41.1967 90.0837 47.2772 87.7561 52.8019C85.4286 58.3267 81.4894 63.0475 76.4369 66.3673C71.3844 69.6871 65.4455 71.4567 59.3716 71.4522V71.4522Z" fill="#0065FF"/>
<path d="M90.0885 41.2153C90.061 33.4824 87.0259 26.0538 81.6075 20.4569C76.189 14.8599 68.7989 11.52 60.9566 11.1237C53.1143 10.7275 45.4159 13.3051 39.4442 18.3266C33.4724 23.3481 29.6813 30.4318 28.8503 38.1213L23.7173 37.6679C23.4845 37.6389 23.2482 37.6806 23.0401 37.7875C22.8321 37.8944 22.6622 38.0614 22.5532 38.2662C22.4443 38.4709 22.4015 38.7035 22.4306 38.9328C22.4597 39.1622 22.5593 39.3773 22.7161 39.5493L34.4435 53.3533C34.8578 53.8406 35.5944 53.9199 35.744 53.5006L49.7617 41.9633C49.9919 41.8789 50.1856 41.7192 50.3104 41.5108C50.4351 41.3025 50.4833 41.0583 50.4469 40.8191C50.4104 40.5799 50.2916 40.3604 50.1103 40.1973C49.9289 40.0341 49.6962 39.9374 49.451 39.9233L43.9383 39.4359C44.2867 36.5031 45.4889 33.7321 47.4 31.4567C49.3111 29.1814 51.8495 27.4987 54.7095 26.6115C57.5694 25.7242 60.6289 25.6703 63.5193 26.4561C66.4096 27.242 69.0076 28.8341 71.0002 31.0406C72.9927 33.2472 74.2949 35.974 74.7498 38.8926C75.2046 41.8113 74.7928 44.7972 73.5638 47.4906C72.3349 50.184 70.3413 52.47 67.8232 54.0732C65.3052 55.6764 62.3701 56.5284 59.3716 56.5266H59.9815V71.4186C68.015 71.2644 75.667 68.0154 81.2956 62.3687C86.9243 56.7221 90.081 49.1277 90.0885 41.2153Z" fill="#0065FF"/>
<path d="M59.3716 56.5264H20V71.4524H59.3716V56.5264Z" fill="url(#paint1_linear)"/>
<path d="M59.3716 56.5264V71.4524H59.9816V56.5604H59.3716V56.5264Z" fill="#0065FF"/>
<path d="M59.3716 56.5264V71.4524H59.9816V56.5604H59.3716V56.5264Z" fill="url(#paint2_linear)"/>
</g>
<defs>
<linearGradient id="paint0_linear" x1="29.9091" y1="63.995" x2="91.2969" y2="63.995" gradientUnits="userSpaceOnUse">
<stop stop-color="#6C798F"/>
<stop offset="1" stop-color="#6C798F" stop-opacity="0.1"/>
</linearGradient>
<linearGradient id="paint1_linear" x1="20" y1="63.995" x2="59.9815" y2="63.995" gradientUnits="userSpaceOnUse">
<stop stop-color="#99C1FF" stop-opacity="0"/>
<stop offset="0.05" stop-color="#76ACFF" stop-opacity="0.05"/>
<stop offset="0.11" stop-color="#5799FF" stop-opacity="0.11"/>
<stop offset="0.17" stop-color="#3B89FF" stop-opacity="0.17"/>
<stop offset="0.25" stop-color="#257BFF" stop-opacity="0.25"/>
<stop offset="0.33" stop-color="#1471FF" stop-opacity="0.33"/>
<stop offset="0.44" stop-color="#096AFF" stop-opacity="0.44"/>
<stop offset="0.59" stop-color="#0266FF" stop-opacity="0.59"/>
<stop offset="1" stop-color="#0065FF"/>
</linearGradient>
<linearGradient id="paint2_linear" x1="59.3716" y1="-28778.1" x2="80.5619" y2="-28778.1" gradientUnits="userSpaceOnUse">
<stop stop-color="#99C1FF" stop-opacity="0"/>
<stop offset="0.05" stop-color="#76ACFF" stop-opacity="0.05"/>
<stop offset="0.11" stop-color="#5799FF" stop-opacity="0.11"/>
<stop offset="0.17" stop-color="#3B89FF" stop-opacity="0.17"/>
<stop offset="0.25" stop-color="#257BFF" stop-opacity="0.25"/>
<stop offset="0.33" stop-color="#1471FF" stop-opacity="0.33"/>
<stop offset="0.44" stop-color="#096AFF" stop-opacity="0.44"/>
<stop offset="0.59" stop-color="#0266FF" stop-opacity="0.59"/>
<stop offset="1" stop-color="#0065FF"/>
</linearGradient>
<clipPath id="clip0">
<rect width="91" height="68" fill="white" transform="translate(20 11)"/>
</clipPath>
</defs>
</svg>
