<svg width="16" height="16" viewBox="0 0 16 16" fill="none" xmlns="http://www.w3.org/2000/svg">
<rect width="16" height="16" fill="white" fill-opacity="0.01"/>
<path fill-rule="evenodd" clip-rule="evenodd" d="M2 0H14C14.5304 0 15.0391 0.210714 15.4142 0.585786C15.7893 0.960859 16 1.46957 16 2V14C16 14.5304 15.7893 15.0391 15.4142 15.4142C15.0391 15.7893 14.5304 16 14 16H2C1.46957 16 0.960859 15.7893 0.585786 15.4142C0.210714 15.0391 0 14.5304 0 14V2C0 1.46957 0.210714 0.960859 0.585786 0.585786C0.960859 0.210714 1.46957 0 2 0V0ZM8 11L5.137 12.822C4.717 13.202 4 12.933 4 12.395V4.205C4 3.54 4.596 3 5.333 3H10.667C11.403 3 12 3.539 12 4.206V12.396C12 12.933 11.281 13.202 10.861 12.822L8 11ZM8 8.629L10 9.903V5H6V9.902L8 8.63V8.629Z" fill="#36B37E"/>
</svg>
