<svg width="250" height="250" viewBox="0 0 250 250" fill="none" xmlns="http://www.w3.org/2000/svg">
<rect width="250" height="250" rx="50" fill="white"/>
<path d="M79.0291 114.64C92.1079 138.353 116.885 150.277 129.76 156.998C123.379 150.39 115.336 121.497 115.336 97.2395C115.336 67.7244 118.828 45.1118 95.7723 49.2093C72.7153 53.3069 66.3894 91.7231 79.0291 114.64Z" fill="#5E21D8"/>
<path d="M77.7933 202.212C99.2755 199.879 115.688 185.347 124.602 177.956C117.772 180.615 94.0302 177.664 76.1786 170.229C54.4578 161.184 38.8929 151.69 34.8019 169.87C30.7107 188.05 57.0323 204.467 77.7933 202.212Z" fill="#8F68DC"/>
<path d="M188.186 164.741C171.715 172.446 153.562 169.161 143.922 167.738C149.996 166.668 165.785 154.175 175.379 141.031C187.051 125.037 194.101 111.41 204.984 122.7C215.867 133.99 204.104 157.295 188.186 164.741Z" fill="#3C148B"/>
</svg>
