<?xml version="1.0" standalone="no"?>
<!DOCTYPE svg PUBLIC "-//W3C//DTD SVG 20010904//EN"
 "http://www.w3.org/TR/2001/REC-SVG-20010904/DTD/svg10.dtd">
<svg version="1.0" xmlns="http://www.w3.org/2000/svg"
 width="518.000000pt" height="518.000000pt" viewBox="0 0 518.000000 518.000000"
 preserveAspectRatio="xMidYMid meet">
<metadata>
Created by potrace 1.14, written by Peter Selinger 2001-2017
</metadata>
<g transform="translate(0.000000,518.000000) scale(0.100000,-0.100000)"
fill="#000000" stroke="none">
<path d="M1070 5149 c-272 -43 -499 -157 -685 -342 -136 -136 -235 -295 -294
-474 -63 -191 -60 -64 -60 -2270 -1 -1911 0 -2013 16 -2021 24 -11 3984 -9
4002 2 10 7 12 5 6 -3 -6 -10 -3 -11 14 -2 16 9 21 9 21 -1 0 -10 2 -10 9 1 5
7 13 11 19 7 6 -3 13 -2 16 3 3 5 19 7 36 6 16 -1 30 2 30 7 0 6 6 8 13 5 7
-3 24 1 37 8 19 10 28 11 39 2 12 -9 13 -9 7 1 -6 11 11 17 37 13 4 0 7 4 7 9
0 6 8 10 18 10 9 0 30 7 46 15 16 9 31 13 34 10 3 -3 16 4 28 16 15 14 29 19
41 15 9 -4 14 -4 11 0 -12 11 85 70 107 65 6 -2 7 0 3 4 -8 9 14 35 25 28 4
-2 7 0 7 5 0 5 13 15 30 22 16 7 28 17 27 24 -1 6 6 10 15 10 10 -1 16 3 15
10 -1 6 4 10 11 8 8 -1 11 1 8 6 -6 11 30 43 39 34 4 -4 5 -2 3 4 -2 7 8 21
21 33 13 12 20 21 15 21 -5 0 3 8 19 18 15 10 24 21 21 25 -4 4 1 9 10 13 9 3
16 10 16 15 0 5 15 30 34 56 18 27 44 68 57 93 13 25 29 48 34 52 6 4 7 8 3 8
-4 0 4 24 17 52 14 29 25 61 25 71 0 12 4 16 13 11 6 -4 9 -4 6 0 -4 4 -1 31
7 59 8 29 16 63 19 77 2 14 9 48 14 75 15 76 15 4064 0 4081 -10 12 -332 14
-2013 13 -1100 -1 -2026 -5 -2056 -10z"/>
</g>
</svg>
